<svg xmlns="http://www.w3.org/2000/svg" viewBox="0 0 1080 1080" width="1080" height="1080">
	<style>
		tspan { white-space:pre }
		.shp0 { fill: none } 
		.txt1 { font-size: 100px;fill: #000000;font-weight: 400;font-family: "DejaVuSans", "DejaVu Sans" } 
		.shp2 { fill: #1e3d59 } 
		.shp3 { fill: #ffc13b } 
	</style>
	<path id="Shape 1" class="shp0" d="" />
	<text id="reamer " style="transform: matrix(1.572,0,0,1.572,380.823,858.541)" >
		<tspan x="0" y="0" class="txt1">reamer</tspan>
	</text>
	<text id="ream " style="transform: matrix(1.934,0,0,1.934,377.584,988.982)" >
		<tspan x="0" y="0" class="txt1">ream</tspan>
	</text>
	<text id="D " style="transform: matrix(3.993,0,0,3.993,77.01,1000.504)" >
		<tspan x="0" y="0" class="txt1">D</tspan>
	</text>
	<path id="Shape 2" class="shp2" d="M375.78 568.35C375.78 568.35 431.14 674.82 554.64 649.27C689.71 621.32 703.7 547.06 703.7 547.06C703.7 547.06 916.59 556.41 954.96 438.46C1012.45 261.73 827.2 223.17 827.2 223.17C827.2 223.17 897.46 86.89 684.53 46.67C471.6 6.44 435.4 159.52 435.4 159.52C435.4 159.52 365.13 101.57 277.83 150.77C190.53 199.98 222.47 282.79 222.47 282.79C222.47 282.79 78.31 316.81 133.04 464.02C194.79 630.1 375.78 568.35 375.78 568.35Z" />
	<path id="Shape 3" class="shp3" d="M779.36 675.24C745.18 675.24 717.55 647.61 717.55 613.44C717.55 579.26 745.18 551.63 779.36 551.63C813.54 551.63 841.16 579.26 841.16 613.44C841.16 647.61 813.54 675.24 779.36 675.24Z" />
	<path id="Shape 3 copy" class="shp3" d="M877.24 674.11C862.67 674.11 850.89 662.33 850.89 647.76C850.89 633.18 862.67 621.4 877.24 621.4C891.82 621.4 903.6 633.18 903.6 647.76C903.6 662.33 891.82 674.11 877.24 674.11Z" />
	<path id="Shape 4" class="shp2" d="M887.82 611.55C863.97 611.55 844.69 592.27 844.69 568.41C844.69 544.56 863.97 525.27 887.82 525.27C911.68 525.27 930.96 544.56 930.96 568.41C930.96 592.27 911.68 611.55 887.82 611.55Z" />
</svg>