<svg xmlns="http://www.w3.org/2000/svg" viewBox="0 0 1080 1080" width="1080" height="1080">
	<style>
		tspan { white-space:pre }
		.shp0 { fill: #1e3d59 } 
	</style>
	<path id="Shape 1" class="shp0" d="M139 169L941 169C952.06 169 961 177.94 961 189L961 291C961 302.06 952.06 311 941 311L139 311C127.94 311 119 302.06 119 291L119 189C119 177.94 127.94 169 139 169Z" />
	<path id="Shape 1 copy" class="shp0" d="M139 369L941 369C952.06 369 961 377.94 961 389L961 491C961 502.06 952.06 511 941 511L139 511C127.94 511 119 502.06 119 491L119 389C119 377.94 127.94 369 139 369Z" />
	<path id="Shape 1 copy 2" class="shp0" d="M139 569L941 569C952.06 569 961 577.94 961 589L961 691C961 702.06 952.06 711 941 711L139 711C127.94 711 119 702.06 119 691L119 589C119 577.94 127.94 569 139 569Z" />
	<path id="Shape 1 copy 3" class="shp0" d="M139 769L941 769C952.06 769 961 777.94 961 789L961 891C961 902.06 952.06 911 941 911L139 911C127.94 911 119 902.06 119 891L119 789C119 777.94 127.94 769 139 769Z" />
</svg>